<?xml version="1.0" encoding="UTF-8" standalone="no"?>
<!-- Created with Inkscape (http://www.inkscape.org/) -->

<svg
   width="84.768654mm"
   height="117.14177mm"
   viewBox="0 0 84.768654 117.14177"
   version="1.1"
   id="svg2020"
   xml:space="preserve"
   inkscape:version="1.2.2 (732a01da63, 2022-12-09, custom)"
   sodipodi:docname="JMS"
   inkscape:export-filename="../b9b32247/JMS_SVG.svg"
   inkscape:export-xdpi="96"
   inkscape:export-ydpi="96"
   xmlns:inkscape="http://www.inkscape.org/namespaces/inkscape"
   xmlns:sodipodi="http://sodipodi.sourceforge.net/DTD/sodipodi-0.dtd"
   xmlns="http://www.w3.org/2000/svg"
   xmlns:svg="http://www.w3.org/2000/svg"><sodipodi:namedview
     id="namedview2022"
     pagecolor="#ffffff"
     bordercolor="#000000"
     borderopacity="0.25"
     inkscape:showpageshadow="2"
     inkscape:pageopacity="0.0"
     inkscape:pagecheckerboard="0"
     inkscape:deskcolor="#d1d1d1"
     inkscape:document-units="mm"
     showgrid="false"
     inkscape:zoom="1.104894"
     inkscape:cx="49.325997"
     inkscape:cy="222.64579"
     inkscape:window-width="1452"
     inkscape:window-height="991"
     inkscape:window-x="26"
     inkscape:window-y="23"
     inkscape:window-maximized="0"
     inkscape:current-layer="layer10" /><defs
     id="defs2017"><linearGradient
       id="linearGradient3443"
       inkscape:swatch="solid"><stop
         style="stop-color:#c2d71e;stop-opacity:1;"
         offset="0"
         id="stop3441" /></linearGradient></defs><g
     inkscape:groupmode="layer"
     id="layer10"
     inkscape:label="Layer 5"
     transform="translate(-66.014596,-51.121845)"><path
       id="path4217"
       style="color:#FFFFFF;fill:transparent;fill-opacity:.2;stroke:#FFFFFF;stroke-width:2px;stroke-linecap:round;stroke-linejoin:miter;stroke-opacity:1;-inkscape-stroke:none;paint-order:normal;image-rendering:auto"
       d="m 124.22852,54.552734 c -4.78604,8.874375 -9.42461,17.870612 -12.89538,27.35346 -1.64327,4.415884 -3.85003,9.62276 -5.35001,10.059311 -3.48204,-10.169503 -4.70775,-12.419576 -7.068194,-21.408968 -1.66672,-6.347459 -4.970755,-13.227662 -7.068194,-17.639891 -0.6734,7.207709 -1.485129,17.545279 -2.199513,25.354324 -0.534622,5.257147 -1.580527,10.412773 -3.460991,15.364764 -1.803568,5.061504 -4.144931,10.246336 -8.23104,13.936036 -1.406478,1.2347 -2.824506,2.57288 -4.586057,3.27393 -0.45464,0.2313 -1.198979,0.1883 -1.017579,-0.5039 0.348351,-0.71331 0.838822,-1.4619 0.651673,-2.31186 -0.161208,-1.92337 -2.521108,-3.23021 -4.20636,-2.24478 -1.885698,1.11991 -2.510429,3.59514 -2.208763,5.65262 0.302192,2.40882 2.055367,4.66203 4.490013,5.17355 2.784613,0.69809 5.57364,-0.61472 7.787109,-2.21485 2.233809,-1.71012 4.329601,-3.63484 6.107422,-5.82031 3.964939,-5.01177 6.183073,-11.112002 8.095126,-17.136674 1.220505,-4.113244 1.918227,-8.361934 2.354093,-12.625047 1.189095,4.091746 2.238514,8.230764 3.785856,12.207555 3.312379,9.072796 7.359349,17.871086 10.373549,27.054306 1.53316,4.95595 2.29601,10.20791 2.78344,15.39871 0.39425,4.83419 0.45576,9.79754 -0.56283,14.60445 -0.87876,4.62495 -3.83373,8.774 -7.57848,11.43517 -2.49999,1.87926 -5.843162,3.05407 -8.932442,2.04934 -4.215616,-1.08109 -7.803995,-4.33979 -9.205201,-8.47318 -1.237878,-3.29192 -1.646423,-6.86016 -1.524039,-10.35984 0.122463,-1.6299 0.737209,-3.40206 1.349207,-4.99617 0.617706,-1.68748 0.514561,-1.56854 1.100755,-3.261 0.404486,-1.81504 -0.279633,-5.39834 -2.138688,-5.11392 -1.39433,0.0872 -2.372413,1.30904 -2.760388,2.55753 -1.781672,3.81529 -3.5762,7.8515 -3.405129,12.15837 0.06017,4.57771 0.802179,9.26103 2.923976,13.3638 2.479248,4.9194 7.204433,8.6282 12.556265,9.90707 3.116289,0.77085 6.446534,0.45402 9.392744,-0.80159 5.30266,-2.17489 9.46086,-6.60433 12.03867,-11.65052 2.67649,-5.60066 2.95805,-11.95695 2.78862,-18.05756 -0.20983,-6.29239 -1.31398,-12.52862 -3.00079,-18.5852 -1.01944,-4.64148 -1.9104,-9.04608 -2.25323,-13.64238 -0.28394,-3.80682 -0.74571,-7.293628 0.16933,-11.450939 0.91505,-4.157311 2.61026,-10.270078 6.56355,-9.930486 4.27494,0.367222 2.64825,5.152196 5.16221,11.791562 2.08391,5.914913 4.92558,11.792203 9.65557,16.053903 2.33607,2.17179 4.94764,4.39572 8.185,4.96462 2.70919,0.4593 5.7427,-0.87762 6.85445,-3.47211 1.03437,-2.2204 0.58172,-5.28657 -1.53415,-6.70868 -1.60987,-0.99274 -4.01913,0.0118 -4.31517,1.91813 -0.18638,0.83663 0.15325,1.72684 0.48633,2.42383 -0.8772,0.31149 -1.67033,-0.34681 -2.43745,-0.7199 -1.70007,-1.12754 -3.19994,-2.54417 -4.6234,-3.99773 -4.0064,-4.40298 -5.59648,-10.128993 -7.4434,-15.684719 -2.56751,-8.327252 -3.46509,-17.194216 -4.05995,-25.886293 -0.22691,-3.667596 -0.47375,-7.33389 -0.71705,-11.000426 -0.29037,0.547526 -0.58073,1.095052 -0.87109,1.642578 z"
       sodipodi:nodetypes="sccscccccccccccccccccccccccccccccccccazaccccccccccccss" /></g></svg>
